<?xml version="1.0" standalone="no"?><!-- Generator: Gravit.io --><svg xmlns="http://www.w3.org/2000/svg" xmlns:xlink="http://www.w3.org/1999/xlink" style="isolation:isolate" viewBox="0 0 100 100" width="100" height="100"><defs><clipPath id="_clipPath_wL0Pyiotg0yJOlX13AYjiAaNIcp3Ffh9"><rect width="100" height="100"/></clipPath></defs><g clip-path="url(#_clipPath_wL0Pyiotg0yJOlX13AYjiAaNIcp3Ffh9)"><g style="isolation:isolate"/><g style="isolation:isolate"><path d="M 24.905 47.107 L 67.626 4.386 C 68.855 3.157 70.851 3.157 72.081 4.386 L 74.497 6.802 C 75.726 8.031 75.726 10.028 74.497 11.257 L 31.776 53.978 C 30.547 55.207 28.551 55.207 27.321 53.978 L 24.905 51.561 C 23.676 50.332 23.676 48.336 24.905 47.107 Z" style="stroke:none;fill:#000000;stroke-miterlimit:10;"/><path d="M 31.776 44.699 L 74.497 87.419 C 75.726 88.648 75.726 90.645 74.497 91.874 L 72.081 94.29 C 70.851 95.519 68.855 95.519 67.626 94.29 L 24.905 51.569 C 23.676 50.34 23.676 48.344 24.905 47.115 L 27.321 44.699 C 28.551 43.469 30.547 43.469 31.776 44.699 Z" style="stroke:none;fill:#000000;stroke-miterlimit:10;"/></g></g></svg>