<?xml version="1.0" standalone="no"?><!-- Generator: Gravit.io --><svg xmlns="http://www.w3.org/2000/svg" xmlns:xlink="http://www.w3.org/1999/xlink" style="isolation:isolate" viewBox="0 0 100 100" width="100" height="100"><defs><clipPath id="_clipPath_DD65O9iJUtsz8P9650FflVbnQSIHusMt"><rect width="100" height="100"/></clipPath></defs><g clip-path="url(#_clipPath_DD65O9iJUtsz8P9650FflVbnQSIHusMt)"><g style="isolation:isolate"><path d="M 67.626 53.978 L 24.905 11.257 C 23.676 10.028 23.676 8.031 24.905 6.802 L 27.321 4.386 C 28.551 3.157 30.547 3.157 31.776 4.386 L 74.497 47.107 C 75.726 48.336 75.726 50.332 74.497 51.561 L 72.081 53.978 C 70.851 55.207 68.855 55.207 67.626 53.978 Z" style="stroke:none;fill:#000000;stroke-miterlimit:10;"/><path d="M 74.497 51.569 L 31.776 94.29 C 30.547 95.519 28.551 95.519 27.321 94.29 L 24.905 91.874 C 23.676 90.645 23.676 88.648 24.905 87.419 L 67.626 44.699 C 68.855 43.469 70.851 43.469 72.081 44.699 L 74.497 47.115 C 75.726 48.344 75.726 50.34 74.497 51.569 Z" style="stroke:none;fill:#000000;stroke-miterlimit:10;"/></g><g style="isolation:isolate"/></g></svg>